<svg id="Capa_1" enable-background="new 0 0 510.788 510.788" height="512" viewBox="0 0 510.788 510.788" width="512" xmlns="http://www.w3.org/2000/svg"><g><path d="m377.814 510.788h-327.49v-168.37c0-40.78 33.18-73.96 73.96-73.96h152.36c34.758 0 64.693 24.238 72.17 57.76.28 1.478 8.493 53.911 29 184.57z" fill="#5c7099"/><path d="m377.814 510.788h-163.74v-242.33h62.57c36.065 0 66.2 26.254 72.35 58.71z" fill="#404a80"/><path d="m460.464 410.598c0 55.079-44.766 100.19-100.19 100.19-55.24 0-100.18-44.94-100.18-100.19 0-55.24 44.94-100.18 100.18-100.18 54.97 0 100.19 44.658 100.19 100.18z" fill="#00dd80"/><path d="m460.464 410.598c0 55.25-44.93 100.18-100.18 100.19v-200.37c55.25.01 100.18 44.94 100.18 100.18z" fill="#00aa95"/><path d="m394.354 395.598v30h-19.08v19.08h-30v-19.08h-19.07v-30h19.07v-19.07h30v19.07z" fill="#ecf9fd"/><path d="m394.354 395.598v30h-19.08v19.08h-14.99v-68.15h14.99v19.07z" fill="#d9f3fc"/><path d="m342.044 149.238c0 78.709-54.316 148.42-127.97 149.21-32.64.778-67.377-13.914-93.48-44.58-49.397-58.044-49.415-151.195 0-209.26 26.137-30.707 60.858-45.339 93.48-44.58 73.812.792 127.97 70.688 127.97 149.21z" fill="#ffd5b6"/><path d="m342.044 149.238c0 78.709-54.316 148.42-127.97 149.21v-298.42c73.812.792 127.97 70.688 127.97 149.21z" fill="#ffc896"/><path d="m324.594 74.198c-56.237 62.585-156.612 82.886-240.61 62.91 5.662-81.899 66.449-138.56 130.09-137.08 48.554.521 89.023 31.454 110.52 74.17z" fill="#fed843"/><path d="m324.594 74.198c-26.22 29.18-65 51.49-110.52 62.58v-136.75c48.554.521 89.023 31.454 110.52 74.17z" fill="#fabe2c"/></g></svg>